<svg xmlns="http://www.w3.org/2000/svg" width="648.143" height="538" viewBox="0 0 648.143 538"><path fill="#DD4814" d="M500.517 170.078c0 93.926-76.146 170.074-170.078 170.074-93.934 0-170.079-76.148-170.079-170.074C160.36 76.146 236.506 0 330.439 0s170.078 76.146 170.078 170.078z"/><path fill="#FFF" d="M214.791 147.366c-12.547 0-22.712 10.166-22.712 22.712 0 12.54 10.165 22.705 22.712 22.705 12.54 0 22.705-10.165 22.705-22.705 0-12.546-10.165-22.712-22.705-22.712zM376.919 250.57c-10.861 6.273-14.585 20.153-8.311 31.008 6.266 10.861 20.146 14.584 31.007 8.311 10.86-6.266 14.584-20.146 8.311-31.008-6.266-10.854-20.154-14.577-31.007-8.311zm-112.805-80.492c0-22.44 11.146-42.265 28.201-54.27l-16.601-27.805c-19.867 13.28-34.649 33.573-40.792 57.34 7.168 5.849 11.756 14.753 11.756 24.734 0 9.975-4.588 18.879-11.756 24.728 6.135 23.774 20.917 44.068 40.792 57.348l16.601-27.812c-17.055-11.998-28.201-31.822-28.201-54.263zm66.325-66.332c34.65 0 63.078 26.567 66.062 60.448l32.356-.477c-1.592-25.013-12.519-47.468-29.309-63.98-8.634 3.262-18.607 2.763-27.227-2.206-8.635-4.983-14.049-13.389-15.529-22.514a98.917 98.917 0 0 0-26.355-3.584c-15.697 0-30.538 3.687-43.715 10.209l15.778 28.274a66.063 66.063 0 0 1 27.939-6.17zm0 132.657a66.07 66.07 0 0 1-27.938-6.17l-15.778 28.273c13.177 6.53 28.018 10.218 43.716 10.218a98.624 98.624 0 0 0 26.354-3.592c1.48-9.125 6.896-17.523 15.529-22.515 8.626-4.977 18.593-5.467 27.227-2.205 16.79-16.512 27.717-38.967 29.309-63.98l-32.364-.477c-2.977 33.89-31.404 60.448-66.055 60.448zm46.472-146.831c10.861 6.272 24.742 2.557 31.008-8.304 6.273-10.861 2.558-24.742-8.304-31.016-10.861-6.266-24.741-2.543-31.016 8.318-6.265 10.855-2.542 24.736 8.312 31.002z"/><path fill="#DD4814" d="M90.651 532.025c-4.606 1.152-10.685 2.375-18.238 3.669-7.555 1.296-16.296 1.941-26.225 1.941-8.633 0-15.901-1.261-21.799-3.774-5.902-2.517-10.65-6.079-14.245-10.686-3.6-4.604-6.188-10.037-7.771-16.296C.789 500.621 0 493.682 0 486.053V423.03h20.073v58.705c0 13.672 2.158 23.456 6.476 29.354 4.316 5.902 11.581 8.852 21.8 8.852 2.157 0 4.387-.072 6.69-.219 2.3-.141 4.458-.322 6.476-.539 2.013-.216 3.848-.431 5.504-.646 1.651-.216 2.839-.465 3.561-.755V423.03h20.073l-.002 108.995zm48.993-104.032c2.444-1.581 6.15-3.237 11.114-4.963 4.965-1.729 10.685-2.591 17.159-2.591 8.058 0 15.216 1.438 21.477 4.315 6.259 2.88 11.547 6.907 15.862 12.088 4.317 5.181 7.589 11.368 9.821 18.562 2.229 7.195 3.346 15.106 3.346 23.739 0 9.065-1.333 17.234-3.992 24.5-2.664 7.266-6.441 13.416-11.332 18.451-4.895 5.039-10.792 8.924-17.698 11.656-6.907 2.731-14.677 4.1-23.312 4.1-9.354 0-17.627-.646-24.82-1.941-7.196-1.295-13.096-2.589-17.698-3.885V371.229l20.073-3.453v60.217zm0 89.788c2.013.576 4.855 1.115 8.525 1.617 3.669.506 8.235.757 13.705.757 10.792 0 19.425-3.562 25.9-10.685 6.475-7.124 9.713-17.23 9.713-30.326 0-5.752-.577-11.147-1.728-16.188-1.152-5.035-3.021-9.388-5.61-13.057-2.59-3.67-5.937-6.547-10.037-8.636-4.101-2.084-9.032-3.129-14.785-3.129-5.47 0-10.505.938-15.107 2.807-4.607 1.872-8.132 3.814-10.576 5.826v71.014zm190.796 14.244c-4.607 1.152-10.685 2.375-18.238 3.669-7.555 1.296-16.295 1.941-26.224 1.941-8.635 0-15.901-1.261-21.8-3.774-5.902-2.517-10.65-6.079-14.245-10.686-3.6-4.604-6.188-10.037-7.771-16.296-1.585-6.26-2.375-13.199-2.375-20.828V423.03h20.073v58.705c0 13.672 2.158 23.456 6.475 29.354 4.316 5.902 11.581 8.852 21.8 8.852 2.157 0 4.388-.072 6.69-.219 2.3-.141 4.458-.322 6.475-.539 2.014-.216 3.849-.431 5.504-.646 1.652-.216 2.841-.465 3.562-.755V423.03h20.073l.001 108.995zm28.919-105.757c4.604-1.15 10.717-2.375 18.346-3.671 7.625-1.294 16.402-1.94 26.33-1.94 8.922 0 16.33 1.261 22.231 3.775 5.898 2.521 10.609 6.043 14.138 10.576 3.522 4.533 6.006 9.967 7.446 16.296 1.437 6.333 2.158 13.312 2.158 20.938v63.021h-20.074v-58.708c0-6.903-.469-12.803-1.401-17.695-.938-4.891-2.48-8.85-4.642-11.87-2.157-3.023-5.036-5.216-8.633-6.584-3.6-1.367-8.061-2.052-13.381-2.052-2.16 0-4.393.074-6.691.217-2.303.145-4.497.324-6.582.541-2.09.215-3.961.469-5.61.755-1.656.29-2.844.506-3.562.646v94.751H359.36l-.001-108.996zm137.053-3.238h42.52v16.835h-42.52v51.799c0 5.611.43 10.253 1.295 13.921.863 3.671 2.158 6.549 3.885 8.634 1.728 2.088 3.885 3.562 6.476 4.425 2.59.863 5.61 1.297 9.063 1.297 6.187 0 11.08-.683 14.678-2.052 3.595-1.365 6.043-2.337 7.339-2.913l4.315 16.403c-2.016 1.008-5.578 2.304-10.684 3.884-5.109 1.582-10.898 2.374-17.375 2.374-7.627 0-13.92-.97-18.886-2.913-4.965-1.942-8.957-4.855-11.979-8.741s-5.146-8.668-6.367-14.354c-1.225-5.682-1.836-12.264-1.836-19.748V391.732l20.074-3.453.002 34.751zm151.73 108.995c-4.606 1.152-10.686 2.375-18.237 3.669-7.556 1.296-16.295 1.941-26.226 1.941-8.633 0-15.899-1.261-21.799-3.774-5.901-2.517-10.649-6.079-14.246-10.686-3.598-4.604-6.188-10.037-7.77-16.296-1.586-6.26-2.375-13.199-2.375-20.828V423.03h20.074v58.705c0 13.672 2.157 23.456 6.475 29.354 4.316 5.902 11.58 8.852 21.799 8.852 2.158 0 4.387-.072 6.691-.219a141.71 141.71 0 0 0 6.475-.539c2.014-.216 3.848-.431 5.504-.646 1.652-.216 2.84-.465 3.562-.755V423.03h20.073v108.995z"/></svg>